<?xml version="1.0" encoding="UTF-8" standalone="no"?>
<!DOCTYPE svg PUBLIC "-//W3C//DTD SVG 1.1//EN" "http://www.w3.org/Graphics/SVG/1.1/DTD/svg11.dtd">
<svg viewBox="0 0 288 288" height="288.0pt" width="288.0pt" xmlns="http://www.w3.org/2000/svg" version="1.1">
<path d="M 0.00 0.00 L 288.00 0.00 L 288.00 288.00 L 0.00 288.00 L 0.00 0.00 Z" fill="#ffffff" />
<path d="M 87.19 53.24 C 90.86 52.23 94.40 55.15 93.86 58.98 C 93.12 63.19 88.19 65.04 84.97 62.01 C 81.95 59.16 83.29 54.38 87.19 53.24 Z" fill="#45c1c2" />
<path d="M 105.98 53.20 C 110.24 52.82 114.75 52.77 119.01 53.28 C 120.92 53.44 122.38 55.67 123.68 56.89 C 128.31 57.14 132.91 57.16 137.53 56.97 C 138.77 55.78 140.00 54.38 141.49 53.51 C 143.23 52.98 145.19 53.05 147.00 53.00 C 173.95 53.17 201.13 52.93 228.05 53.11 C 232.19 53.04 234.93 56.58 233.64 60.56 C 232.32 64.06 229.29 64.25 226.01 64.32 C 202.37 64.25 178.65 64.29 155.00 64.29 C 151.00 64.26 146.93 64.53 142.95 64.13 C 140.15 64.01 138.92 61.35 137.31 59.48 C 132.79 59.42 128.28 59.42 123.77 59.51 C 122.05 61.09 120.65 63.44 118.05 63.38 C 114.05 63.66 109.93 63.70 105.94 63.32 C 103.20 63.15 101.12 60.71 101.23 58.00 C 101.39 55.39 103.35 53.37 105.98 53.20 Z" fill="#45c1c2" />
<path d="M 121.00 69.10 C 129.99 69.27 139.02 68.95 148.00 69.24 C 151.19 69.28 152.11 71.68 153.83 73.87 C 156.48 73.91 159.13 73.92 161.79 73.91 C 163.61 71.64 164.61 69.18 167.97 69.21 C 186.94 69.02 206.01 69.25 225.00 69.10 C 227.47 69.22 230.35 68.81 232.25 70.76 C 234.66 72.95 234.47 76.93 232.03 79.02 C 230.30 80.50 228.14 80.35 226.00 80.45 C 209.34 80.39 192.67 80.40 176.00 80.43 C 172.73 80.38 169.28 80.70 166.07 80.06 C 164.51 79.26 163.26 77.68 162.05 76.43 C 159.28 76.39 156.51 76.38 153.74 76.40 C 151.65 78.47 150.36 80.61 147.03 80.39 C 137.35 80.43 127.64 80.46 117.96 80.38 C 113.45 80.69 110.14 75.63 112.76 71.77 C 114.75 68.68 117.79 69.24 121.00 69.10 Z" fill="#02a3a8" />
<path d="M 59.00 86.06 C 73.67 86.21 88.38 85.95 103.04 86.17 C 105.90 86.16 107.19 88.37 109.07 90.13 C 111.52 90.13 113.97 90.10 116.42 90.04 C 117.50 88.92 118.58 87.66 119.85 86.77 C 121.33 85.99 123.36 86.15 124.99 86.06 C 139.99 86.12 155.01 86.11 170.01 86.07 C 172.35 86.17 174.44 86.00 176.19 87.83 C 178.52 90.03 178.29 93.85 175.91 95.92 C 174.17 97.42 172.16 97.28 170.00 97.38 C 155.00 97.34 140.00 97.32 125.00 97.38 C 123.42 97.32 121.63 97.40 120.14 96.83 C 118.70 95.95 117.55 94.52 116.38 93.33 C 113.88 93.32 111.38 93.33 108.89 93.37 C 107.68 94.61 106.43 96.14 104.90 96.98 C 103.33 97.38 101.62 97.35 100.00 97.39 C 87.67 97.33 75.33 97.33 63.00 97.37 C 60.05 97.34 56.96 97.57 54.04 97.05 C 50.27 96.05 48.65 91.31 51.19 88.25 C 53.19 85.68 56.10 86.20 59.00 86.06 Z" fill="#0496a2" />
<path d="M 100.00 102.15 C 106.67 102.21 113.34 102.19 120.01 102.16 C 121.62 102.24 123.60 102.12 125.07 102.86 C 126.51 103.91 127.60 105.60 128.68 107.00 C 131.28 107.05 133.89 107.07 136.50 107.05 C 137.68 105.58 138.88 103.47 140.62 102.62 C 142.64 102.03 144.92 102.20 147.00 102.15 C 165.66 102.29 184.39 102.08 203.03 102.25 C 207.99 102.25 210.33 107.79 207.81 111.76 C 205.89 114.55 203.01 114.23 200.00 114.32 C 181.00 114.19 161.92 114.38 142.93 114.23 C 140.02 114.39 138.47 111.35 136.03 110.39 C 133.55 110.10 130.99 110.23 128.49 110.26 C 126.91 111.82 125.50 114.01 123.07 114.15 C 118.07 114.52 113.01 114.18 108.00 114.28 C 104.00 114.22 99.90 114.56 95.93 114.07 C 91.37 113.20 89.99 107.22 93.02 103.99 C 94.94 101.92 97.41 102.28 100.00 102.15 Z" fill="#068198" />
<path d="M 76.38 103.41 C 80.55 101.80 85.13 105.52 84.02 109.93 C 82.86 114.18 77.61 115.82 74.43 112.58 C 71.48 109.67 72.62 104.89 76.38 103.41 Z" fill="#068198" />
<path d="M 45.39 118.43 C 49.65 117.42 53.71 121.74 52.07 125.93 C 50.46 129.90 45.19 131.04 42.39 127.59 C 39.56 124.35 41.40 119.52 45.39 118.43 Z" fill="#087592" />
<path d="M 64.97 118.34 C 73.32 118.26 81.69 118.29 90.04 118.33 C 93.24 118.17 94.52 120.54 97.01 122.05 C 99.58 122.58 102.36 122.33 104.97 122.34 C 106.37 120.98 108.03 118.57 110.13 118.45 C 114.06 118.09 118.06 118.36 122.00 118.31 C 148.34 118.30 174.69 118.35 201.02 118.28 C 203.56 118.32 205.80 118.31 207.52 120.48 C 210.17 123.58 208.42 128.41 204.56 129.37 C 201.43 129.86 198.16 129.60 195.00 129.64 C 167.47 129.60 139.49 129.64 111.95 129.63 C 108.54 129.90 107.06 127.84 104.98 125.59 C 102.36 125.61 99.57 125.34 97.00 125.89 C 94.52 127.41 93.23 129.77 90.03 129.61 C 81.68 129.65 73.32 129.67 64.98 129.60 C 61.93 129.67 59.76 127.84 58.99 124.96 C 58.34 121.47 61.41 118.12 64.97 118.34 Z" fill="#087592" />
<path d="M 110.19 133.26 C 113.99 132.44 118.13 132.92 122.00 132.83 C 136.00 132.83 150.00 132.86 164.00 132.80 C 166.60 132.90 169.33 132.68 171.25 134.76 C 173.48 137.01 173.46 140.94 171.13 143.12 C 169.41 144.92 167.33 144.83 165.02 144.92 C 148.68 144.91 132.34 144.86 116.00 144.94 C 112.81 144.79 109.62 145.42 107.43 142.56 C 104.83 139.42 106.37 134.51 110.19 133.26 Z" fill="#0a658a" />
<path d="M 77.94 149.90 C 86.28 149.66 94.72 149.73 103.07 149.86 C 105.89 149.91 107.05 151.96 108.84 153.75 C 112.36 153.72 116.22 154.20 119.66 153.49 C 122.20 151.80 123.55 149.57 126.97 149.79 C 159.78 149.75 193.17 149.82 226.01 149.76 C 228.03 149.84 230.14 149.82 231.79 151.17 C 234.50 153.32 234.71 157.77 232.14 160.12 C 230.17 162.14 227.59 161.77 225.00 161.89 C 192.08 161.76 158.88 161.97 126.00 161.79 C 122.60 161.81 121.46 159.41 119.58 157.10 C 115.99 157.07 112.40 157.07 108.82 157.14 C 107.03 158.95 105.89 160.92 103.07 160.98 C 96.06 161.31 89.01 160.98 82.00 161.13 C 78.89 160.99 75.51 161.45 73.64 158.40 C 71.30 154.93 73.83 150.13 77.94 149.90 Z" fill="#0c5482" />
<path d="M 102.20 167.23 C 106.75 164.99 111.99 170.13 109.70 174.70 C 107.86 178.72 102.00 179.10 99.69 175.32 C 97.73 172.47 99.19 168.59 102.20 167.23 Z" fill="#0d4a7e" />
<path d="M 121.94 166.83 C 125.62 166.57 129.46 166.54 133.14 166.87 C 135.38 167.23 136.92 169.91 138.97 170.62 C 141.47 170.89 144.03 170.77 146.54 170.74 C 147.82 169.44 149.22 167.42 151.06 166.98 C 153.32 166.58 155.71 166.70 158.00 166.69 C 181.31 166.80 204.76 166.63 228.06 166.76 C 231.99 166.72 234.71 170.00 233.78 173.85 C 232.87 177.03 230.10 178.06 227.03 177.95 C 202.37 177.92 177.58 177.99 152.95 177.92 C 149.76 178.08 148.51 176.01 146.54 173.97 C 143.78 173.92 141.01 173.92 138.24 173.95 C 136.77 175.36 135.23 177.74 133.03 177.81 C 129.12 178.14 125.02 178.20 121.12 177.73 C 118.73 177.38 117.15 175.30 116.73 173.03 C 116.41 169.94 118.80 166.99 121.94 166.83 Z" fill="#0d4a7e" />
<path d="M 36.76 187.00 C 43.84 187.01 50.92 187.00 58.00 186.95 C 60.15 186.88 61.82 187.23 63.83 188.03 C 55.69 189.57 47.06 188.42 38.79 188.79 C 38.77 193.19 38.77 197.60 38.78 202.00 C 44.85 202.02 50.93 201.98 57.00 201.95 C 59.15 201.88 60.82 202.22 62.83 203.03 C 55.02 204.55 46.73 203.44 38.79 203.79 C 38.76 208.60 38.76 213.40 38.79 218.21 C 45.54 218.29 52.28 218.16 59.02 218.21 C 61.03 218.16 62.18 218.64 63.86 219.64 C 54.89 220.46 45.76 219.78 36.76 220.00 C 36.75 209.00 36.75 198.00 36.76 187.00 Z" fill="#575757" />
<path d="M 65.77 187.00 C 71.20 187.03 76.63 186.94 82.05 186.98 C 84.65 187.05 87.85 187.43 89.95 189.07 C 92.68 191.36 93.15 195.79 92.39 199.06 C 91.73 202.59 88.52 204.96 85.05 205.25 C 79.33 205.69 73.53 205.32 67.79 205.40 C 67.70 210.26 67.72 215.12 67.74 219.97 L 65.77 220.03 C 65.77 209.02 65.77 198.01 65.77 187.00 Z" fill="#4c4c4c" />
<path d="M 96.76 186.97 L 98.79 187.02 C 98.77 198.01 98.77 208.99 98.79 219.98 L 96.76 220.03 C 96.75 209.01 96.75 197.99 96.76 186.97 Z" fill="#585858" />
<path d="M 104.76 187.00 C 110.18 187.07 115.61 186.85 121.02 187.03 C 125.79 187.31 130.34 189.00 132.63 193.46 C 135.17 198.63 135.33 205.09 133.73 210.55 C 132.21 215.50 128.09 218.93 122.99 219.68 C 116.99 220.43 110.81 219.82 104.76 220.00 C 104.76 209.00 104.76 198.00 104.76 187.00 Z" fill="#565656" />
<path d="M 139.76 187.00 C 146.84 187.01 153.92 187.00 161.00 186.95 C 163.15 186.88 164.82 187.22 166.82 188.03 C 158.69 189.57 150.06 188.42 141.79 188.79 C 141.77 193.19 141.77 197.60 141.78 202.00 C 147.85 202.02 153.93 201.98 160.00 201.95 C 162.15 201.88 163.82 202.22 165.83 203.03 C 158.02 204.55 149.73 203.44 141.79 203.79 C 141.76 208.60 141.76 213.40 141.79 218.21 C 148.54 218.29 155.28 218.16 162.02 218.21 C 164.03 218.16 165.18 218.64 166.86 219.64 C 157.89 220.46 148.76 219.78 139.76 220.00 C 139.75 209.00 139.75 198.00 139.76 187.00 Z" fill="#575757" />
<path d="M 169.00 187.00 C 170.00 187.00 171.00 187.00 172.00 187.00 C 175.29 193.34 178.64 199.66 182.02 205.96 C 184.04 209.68 185.80 213.64 188.18 217.14 C 193.74 207.24 198.88 197.09 204.23 187.07 C 205.22 187.03 206.21 187.00 207.20 186.97 C 207.20 197.97 207.20 208.97 207.20 219.98 L 205.36 220.03 C 205.34 209.93 205.41 199.82 205.33 189.72 C 199.75 199.46 194.88 209.66 189.30 219.39 C 188.45 220.83 186.81 219.83 186.37 218.52 C 181.23 208.94 176.17 199.29 171.03 189.70 C 170.96 199.80 171.02 209.90 171.00 220.00 L 169.00 220.00 C 169.00 209.00 169.00 198.00 169.00 187.00 Z" fill="#333333" />
<path d="M 213.76 186.97 L 215.79 187.02 C 215.77 198.01 215.77 208.99 215.79 219.98 L 213.76 220.03 C 213.75 209.01 213.75 197.99 213.76 186.97 Z" fill="#585858" />
<path d="M 244.24 187.61 C 248.91 189.37 251.62 193.28 252.54 198.09 C 249.36 196.10 248.59 192.53 245.53 190.48 C 239.68 186.71 231.21 187.25 226.17 192.18 C 220.10 197.86 219.94 208.42 225.54 214.48 C 230.83 220.08 240.71 220.51 246.56 215.57 C 249.24 213.04 250.23 209.17 252.82 206.44 C 252.57 209.59 251.99 212.45 249.88 214.89 C 244.43 221.69 233.30 222.35 226.29 217.73 C 217.46 211.69 217.36 197.07 225.32 190.26 C 230.23 185.83 238.27 185.41 244.24 187.61 Z" fill="#545454" />
<path d="M 67.74 188.75 C 73.77 188.91 80.05 188.20 86.00 189.22 C 90.41 190.11 91.41 195.02 90.49 198.81 C 89.64 201.76 86.95 203.40 83.99 203.63 C 78.60 204.00 73.15 203.68 67.75 203.77 C 67.72 198.76 67.72 193.76 67.74 188.75 Z" fill="#ffffff" />
<path d="M 106.79 188.80 C 111.85 188.84 116.99 188.50 122.04 188.99 C 126.11 189.41 129.73 191.68 131.30 195.55 C 133.46 200.83 133.36 207.57 130.66 212.64 C 128.95 215.90 125.63 217.70 122.03 218.03 C 116.98 218.49 111.85 218.16 106.79 218.20 C 106.76 208.40 106.76 198.60 106.79 188.80 Z" fill="#ffffff" />
<path d="M 130.36 225.02 C 129.19 226.88 127.91 228.67 126.61 230.45 C 127.95 232.65 129.27 234.86 130.58 237.08 C 129.58 237.04 128.58 236.99 127.58 236.94 C 126.49 235.17 125.36 233.43 124.20 231.71 C 123.91 233.72 123.65 235.72 123.36 237.72 L 121.51 236.41 C 121.00 232.85 121.32 229.12 121.28 225.54 L 123.76 225.54 C 123.73 227.23 123.70 228.92 123.67 230.61 C 125.59 227.82 126.63 225.50 130.36 225.02 Z" fill="#4d4d4d" />
<path d="M 189.46 224.84 C 189.72 228.90 189.64 232.93 189.64 236.99 C 188.88 236.99 188.13 236.99 187.37 236.99 C 187.42 233.46 187.08 229.79 187.59 226.28 C 188.14 225.82 188.76 225.34 189.46 224.84 Z" fill="#333333" />
<path d="M 204.50 225.73 C 205.40 225.62 206.31 225.56 207.22 225.53 C 208.90 228.14 210.33 230.87 211.72 233.64 C 211.64 230.71 211.63 227.78 211.75 224.84 L 213.77 226.32 C 214.27 229.82 213.95 233.49 213.99 237.03 C 213.07 237.00 212.15 236.97 211.23 236.94 C 209.60 234.06 208.00 231.16 206.57 228.18 C 206.63 231.14 206.64 234.09 206.64 237.05 L 204.35 236.94 C 204.40 233.21 204.18 229.44 204.50 225.73 Z" fill="#333333" />
<path d="M 48.83 225.63 C 49.94 225.63 51.05 225.62 52.15 225.62 C 52.90 228.12 53.60 230.62 54.39 233.11 C 55.19 230.61 55.95 228.10 56.74 225.60 C 57.87 225.62 59.00 225.64 60.13 225.66 C 60.25 229.70 60.51 233.79 60.44 237.84 C 56.72 236.38 58.37 230.84 57.81 227.64 C 56.96 230.62 56.10 233.60 55.18 236.56 C 54.53 236.64 53.88 236.71 53.23 236.79 C 52.37 233.77 51.60 230.72 50.75 227.68 C 50.60 230.79 50.44 233.90 50.31 237.00 L 48.01 237.00 C 48.40 233.22 48.62 229.42 48.83 225.63 Z" fill="#333333" />
<path d="M 77.82 225.60 C 78.93 225.60 80.04 225.60 81.14 225.60 C 82.41 229.64 83.79 233.60 84.63 237.76 C 82.62 236.93 81.71 235.71 80.54 234.01 C 79.72 234.05 78.91 234.09 78.10 234.13 C 77.06 236.07 76.48 236.85 74.36 237.72 C 75.20 233.58 76.55 229.62 77.82 225.60 Z" fill="#404040" />
<path d="M 98.81 225.51 C 100.94 225.72 103.76 225.30 105.64 226.39 C 107.56 227.97 105.95 229.85 105.46 231.73 C 106.09 233.74 106.69 235.76 107.21 237.80 C 104.37 236.38 103.51 233.80 101.63 231.45 C 101.41 233.30 101.23 235.15 101.06 237.00 L 98.80 237.00 C 98.79 233.17 98.79 229.34 98.81 225.51 Z" fill="#383838" />
<path d="M 144.00 225.63 C 146.35 225.63 148.69 225.63 151.04 225.63 L 150.96 227.57 C 149.12 227.67 147.29 227.79 145.46 227.95 C 147.12 229.89 149.35 230.10 151.55 231.12 C 149.84 231.73 148.08 232.16 146.32 232.62 C 146.34 233.33 146.35 234.04 146.37 234.74 C 148.23 234.80 150.09 234.86 151.95 234.95 C 150.49 238.17 146.83 236.67 144.00 237.06 C 144.00 233.25 144.00 229.44 144.00 225.63 Z" fill="#333333" />
<path d="M 173.36 225.58 L 173.46 227.65 C 172.38 227.64 171.29 227.64 170.20 227.63 C 170.20 230.75 170.20 233.88 170.20 237.00 L 167.80 237.00 C 167.80 233.94 167.80 230.88 167.80 227.81 C 166.47 227.57 165.15 227.32 163.83 227.05 C 166.49 224.88 170.14 225.78 173.36 225.58 Z" fill="#333333" />
<path d="M 238.35 226.97 C 236.29 227.35 233.95 227.26 231.99 228.03 C 230.50 229.25 229.87 231.40 230.79 233.15 C 231.57 234.95 233.99 234.81 235.64 235.34 C 235.61 234.57 235.57 233.80 235.54 233.04 C 234.72 232.32 233.93 231.57 233.17 230.77 C 234.80 230.69 236.44 230.62 238.07 230.54 C 238.01 232.71 237.98 234.89 237.86 237.07 C 235.70 237.07 233.28 237.39 231.19 236.76 C 228.20 235.50 227.29 231.54 228.57 228.74 C 230.13 224.90 235.38 224.28 238.35 226.97 Z" fill="#3f3f3f" />
<path d="M 101.18 226.90 C 102.59 227.28 103.95 227.80 105.29 228.35 C 103.99 229.86 102.77 230.70 100.95 231.52 C 100.96 229.97 101.04 228.43 101.18 226.90 Z" fill="#b7b7b7" />
<path d="M 79.53 227.51 C 79.98 229.01 80.43 230.50 80.89 232.00 C 79.85 232.00 78.81 232.00 77.77 232.00 C 78.36 230.50 78.94 229.00 79.53 227.51 Z" fill="#c7c7c7" /></svg>